STARTFONT 2.1
FONT -Adobe-ITC Avant Garde Gothic-Demi-O-Normal--33-240-100-100-P-183-ISO8859-1
SIZE 24 100 100
FONTBOUNDINGBOX 47 34 -4 -7

STARTPROPERTIES 26
_DEC_DEVICE_FONTNAMES "PS=AvantGarde-DemiOblique"
FONTNAME_REGISTRY ""
FAMILY_NAME "ITC Avant Garde Gothic"
FOUNDRY "Adobe"
WEIGHT_NAME "Demi"
SLANT "O"
SETWIDTH_NAME "Normal"
ADD_STYLE_NAME ""
PIXEL_SIZE 33
POINT_SIZE 240
RESOLUTION_X 100
RESOLUTION_Y 100
SPACING "P"
AVERAGE_WIDTH 183
CHARSET_REGISTRY "ISO8859"
CHARSET_ENCODING "1"
CHARSET_COLLECTIONS "ASCII ISO8859-1 ADOBE-STANDARD"
FULL_NAME "ITC Avant Garde Gothic Demi Oblique"
COPYRIGHT "Copyright (c) 1991 Adobe Systems, Inc."
CAP_HEIGHT 25
X_HEIGHT 19
WEIGHT 10
QUAD_WIDTH 21
DEFAULT_CHAR 0
FONT_DESCENT 7
FONT_ASCENT 27
ENDPROPERTIES

CHARS 190

STARTCHAR space
ENCODING 32
SWIDTH 280 0
DWIDTH 9 0
BBX 1 1 0 0
BITMAP
00
ENDCHAR

STARTCHAR exclam
ENCODING 33
SWIDTH 280 0
DWIDTH 9 0
BBX 9 25 3 0
BITMAP
0F80
0F80
0F00
0F00
0F00
1F00
1F00
1F00
1E00
1E00
3E00
3E00
3E00
3C00
3C00
7C00
7C00
7C00
7800
0000
0000
F800
F800
F800
F000
ENDCHAR

STARTCHAR quotedbl
ENCODING 34
SWIDTH 360 0
DWIDTH 12 0
BBX 8 8 6 17
BITMAP
77
77
67
66
E6
EE
EE
EE
ENDCHAR

STARTCHAR numbersign
ENCODING 35
SWIDTH 560 0
DWIDTH 19 0
BBX 18 24 2 0
BITMAP
0073C0
00E380
00E380
00E780
01C700
01C700
01CF00
1FFFC0
1FFFC0
3FFFC0
071C00
071C00
073C00
7FFF00
FFFF00
FFFF00
1E7000
1C7000
1C7000
3CE000
38E000
38E000
79C000
71C000
ENDCHAR

STARTCHAR dollar
ENCODING 36
SWIDTH 560 0
DWIDTH 18 0
BBX 16 30 3 -3
BITMAP
0078
0078
0078
00F8
01F8
03FC
07FE
0FFF
1F1F
1E1F
1E00
1F00
1FC0
1FF0
0FF8
07FC
00FE
003E
003E
F83E
F83C
F87C
FFF8
7FF8
3FE0
1FC0
0F00
0F00
0F00
0F00
ENDCHAR

STARTCHAR percent
ENCODING 37
SWIDTH 860 0
DWIDTH 28 0
BBX 24 25 5 0
BITMAP
0F8000
1FC070
7FE0F0
7FE0E0
F1E1C0
F0E3C0
F1E380
F1E780
FFCF00
FFCE00
7F1E00
1C1C00
003C00
007838
0071FE
00F3FE
00E7FF
01C78F
03CF0F
038F0F
078F1E
0F0FFE
0E07FC
1E03F8
0001E0
ENDCHAR

STARTCHAR ampersand
ENCODING 38
SWIDTH 680 0
DWIDTH 23 0
BBX 22 25 2 0
BITMAP
007E00
00FF80
01FF80
03FFC0
07EFC0
07C7C0
0787C0
07CF80
07DF80
07FF00
03FE7C
0FF87C
1FF8F8
3FFDF0
7F7FE0
7C7FE0
F83FC0
F81F80
F81FC0
F83FE0
FC7FE0
7FFFF0
7FF9F0
3FF1E0
0FC0C0
ENDCHAR

STARTCHAR quoteright
ENCODING 39
SWIDTH 280 0
DWIDTH 9 0
BBX 6 9 6 16
BITMAP
7C
7C
7C
7C
1C
38
70
E0
C0
ENDCHAR

STARTCHAR parenleft
ENCODING 40
SWIDTH 380 0
DWIDTH 13 0
BBX 12 29 4 -4
BITMAP
0030
00F0
01F0
03E0
07E0
0FC0
0F80
1F00
3E00
3E00
7C00
7C00
7800
F800
F800
F800
F800
F800
F800
F800
F800
FC00
7C00
7E00
7E00
3E00
1E00
1E00
0600
ENDCHAR

STARTCHAR parenright
ENCODING 41
SWIDTH 380 0
DWIDTH 13 0
BBX 12 29 1 -4
BITMAP
0600
0700
0780
07C0
0FC0
07E0
03E0
03E0
01F0
01F0
01F0
01F0
01F0
01F0
01F0
01E0
03E0
03E0
03E0
07C0
0FC0
0F80
1F00
3F00
7E00
FC00
F800
F000
C000
ENDCHAR

STARTCHAR asterisk
ENCODING 42
SWIDTH 440 0
DWIDTH 15 0
BBX 10 10 6 15
BITMAP
1100
3B80
1F00
1E00
FFC0
FFC0
3C00
3E00
7600
6600
ENDCHAR

STARTCHAR plus
ENCODING 43
SWIDTH 600 0
DWIDTH 20 0
BBX 18 17 3 2
BITMAP
00F000
00F000
00F000
00F000
00F000
01F000
7FFFC0
7FFFC0
FFFF80
FFFF80
01E000
03C000
03C000
03C000
03C000
03C000
038000
ENDCHAR

STARTCHAR comma
ENCODING 44
SWIDTH 280 0
DWIDTH 9 0
BBX 6 9 2 -5
BITMAP
7C
7C
7C
7C
1C
38
70
E0
C0
ENDCHAR

STARTCHAR minus
ENCODING 45
SWIDTH 600 0
DWIDTH 19 0
BBX 17 4 4 9
BITMAP
FFFF80
FFFF80
FFFF80
FFFF80
ENDCHAR

STARTCHAR period
ENCODING 46
SWIDTH 280 0
DWIDTH 9 0
BBX 5 4 3 0
BITMAP
F8
F8
F8
F8
ENDCHAR

STARTCHAR slash
ENCODING 47
SWIDTH 460 0
DWIDTH 15 0
BBX 18 29 1 -4
BITMAP
0001C0
0001C0
000380
000780
000700
000F00
000E00
001E00
001C00
003800
007800
007000
00F000
00E000
01E000
01C000
03C000
038000
070000
0F0000
0E0000
1E0000
1C0000
3C0000
380000
700000
700000
E00000
E00000
ENDCHAR

STARTCHAR zero
ENCODING 48
SWIDTH 560 0
DWIDTH 18 0
BBX 18 25 2 0
BITMAP
00FE00
03FF80
07FF80
0FFFC0
1FCFC0
1F07C0
3E03C0
3E03C0
3C03C0
3C03C0
7C07C0
7C07C0
7C07C0
780780
780780
F80F80
F80F80
F80F80
F80F00
F81F00
FC7E00
7FFE00
7FFC00
3FF800
0FE000
ENDCHAR

STARTCHAR one
ENCODING 49
SWIDTH 560 0
DWIDTH 18 0
BBX 9 25 8 0
BITMAP
7F80
7F80
7F00
7F00
0F00
1F00
1F00
1F00
1E00
1E00
3E00
3E00
3E00
3C00
3C00
7C00
7C00
7C00
7800
7800
7800
F800
F800
F800
F000
ENDCHAR

STARTCHAR two
ENCODING 50
SWIDTH 560 0
DWIDTH 18 0
BBX 19 25 1 0
BITMAP
007F00
01FF80
03FFC0
07FFE0
0FE7E0
0F83E0
1F01E0
1F01E0
1E01E0
0003E0
0007E0
000FC0
001F80
003F00
007E00
01FC00
03F800
07F000
0FC000
3F8000
7F0000
7FFF80
FFFF80
FFFF80
FFFF00
ENDCHAR

STARTCHAR three
ENCODING 51
SWIDTH 560 0
DWIDTH 18 0
BBX 17 25 2 0
BITMAP
007C00
01FF00
03FF00
07FF80
07CF80
078780
000780
000F80
003F00
00FF00
00FC00
00FE00
00FF00
001F80
000F80
000F80
000F80
F80F80
F80F00
F81F00
7E7E00
7FFE00
3FFC00
1FF000
0FE000
ENDCHAR

STARTCHAR four
ENCODING 52
SWIDTH 560 0
DWIDTH 18 0
BBX 19 25 1 0
BITMAP
0003E0
0003E0
0007C0
000FC0
001FC0
003FC0
007FC0
007FC0
00F780
01E780
03EF80
07CF80
078F80
0F0F00
1E0F00
3E1F00
7C1F00
FFFFC0
FFFFC0
FFFFC0
FFFFC0
003E00
003E00
003E00
003C00
ENDCHAR

STARTCHAR five
ENCODING 53
SWIDTH 560 0
DWIDTH 18 0
BBX 17 25 2 0
BITMAP
03FF80
03FF80
07FF80
07FF80
078000
0F8000
0F0000
0F0000
1F0000
1FFC00
3FFE00
3FFF00
3FFF00
3E3F80
000F80
000F80
000F80
000F80
F00F00
F81F00
FC7E00
FFFC00
7FF800
3FF000
1FC000
ENDCHAR

STARTCHAR six
ENCODING 54
SWIDTH 560 0
DWIDTH 18 0
BBX 18 25 2 0
BITMAP
000F80
001F80
003F00
007E00
007C00
00F800
01F800
03F000
07E000
07FE00
0FFF00
1FFF80
3FFF80
7F1FC0
7C07C0
7807C0
F807C0
F807C0
F80780
F80F80
FE3F00
7FFE00
7FFC00
3FF800
0FE000
ENDCHAR

STARTCHAR seven
ENCODING 55
SWIDTH 560 0
DWIDTH 18 0
BBX 18 25 3 0
BITMAP
1FFFC0
1FFFC0
1FFF80
1FFF80
000F80
000F00
001F00
003E00
003E00
007C00
00F800
00F800
01F000
01F000
03E000
07C000
07C000
0F8000
1F0000
1F0000
3E0000
3E0000
7C0000
F80000
F80000
ENDCHAR

STARTCHAR eight
ENCODING 56
SWIDTH 560 0
DWIDTH 18 0
BBX 17 25 2 0
BITMAP
007C00
01FF00
03FF00
07FF80
07DF80
0F8780
0F0780
0F0780
0F0F80
0F9F00
0FFE00
0FFC00
1FFE00
3FFF00
7E1F00
7C0F80
F80F80
F80F80
F80F00
F81F00
FC7E00
7FFE00
7FFC00
3FF000
0FE000
ENDCHAR

STARTCHAR nine
ENCODING 57
SWIDTH 560 0
DWIDTH 18 0
BBX 17 25 4 0
BITMAP
03FC00
07FE00
1FFF00
3FFF80
3F3F80
7C0F80
780F80
F80780
F00780
F00F80
F80F80
F81F00
FC7F00
FFFE00
7FFC00
7FFC00
1FF800
03F000
07E000
07C000
0F8000
1F0000
3F0000
7E0000
FC0000
ENDCHAR

STARTCHAR colon
ENCODING 58
SWIDTH 280 0
DWIDTH 9 0
BBX 7 17 3 0
BITMAP
3E
3E
3E
3E
00
00
00
00
00
00
00
00
00
F8
F8
F8
F8
ENDCHAR

STARTCHAR semicolon
ENCODING 59
SWIDTH 280 0
DWIDTH 9 0
BBX 8 22 2 -5
BITMAP
1F
1F
1F
1F
00
00
00
00
00
00
00
00
00
7C
7C
7C
7C
1C
38
70
E0
C0
ENDCHAR

STARTCHAR less
ENCODING 60
SWIDTH 600 0
DWIDTH 20 0
BBX 18 18 4 1
BITMAP
0001C0
000F80
003F80
00FF00
07FC00
1FF000
7F8000
FE0000
F80000
FE0000
FF8000
3FC000
0FF000
03FC00
00FE00
003E00
000E00
000200
ENDCHAR

STARTCHAR equal
ENCODING 61
SWIDTH 600 0
DWIDTH 19 0
BBX 19 11 3 5
BITMAP
3FFFE0
3FFFE0
3FFFE0
3FFFE0
000000
000000
000000
FFFF80
FFFF80
FFFF80
FFFF80
ENDCHAR

STARTCHAR greater
ENCODING 62
SWIDTH 600 0
DWIDTH 19 0
BBX 19 18 2 2
BITMAP
100000
1C0000
1F8000
1FE000
0FF800
03FE00
00FF80
003FE0
000FE0
0003E0
001FE0
007FC0
01FF00
0FF800
3FE000
7F0000
FC0000
F00000
ENDCHAR

STARTCHAR question
ENCODING 63
SWIDTH 560 0
DWIDTH 18 0
BBX 15 25 4 0
BITMAP
07F0
0FF8
3FFC
3FFE
7E7E
F83E
F83E
F03E
003E
007C
00FC
01F8
03F0
07E0
0FC0
0F80
1F00
1F00
1E00
0000
0000
3E00
3E00
3E00
3C00
ENDCHAR

STARTCHAR at
ENCODING 64
SWIDTH 740 0
DWIDTH 24 0
BBX 26 25 2 0
BITMAP
001FF000
007FFC00
01F8FE00
03C00F00
07000780
0E000380
1C0F39C0
387FB9C0
38FFF9C0
71FFF9C0
73E1F1C0
63C0F1C0
E3C0F180
E781E380
E781E300
E7C3C700
E7FFCE00
E3FFF800
73FFF000
70E3C000
38003C00
3E00F800
1FC3F000
0FFFC000
03FF0000
ENDCHAR

STARTCHAR A
ENCODING 65
SWIDTH 740 0
DWIDTH 24 0
BBX 24 25 0 0
BITMAP
0003E0
0003E0
0007E0
0007E0
000FF0
001FF0
001FF0
003EF0
003CF0
007CF8
00F8F8
00F8F8
01F0F8
01F07C
03FFFC
03FFFC
07FFFC
0FFFFC
0F803E
1F003E
1F003E
3E003E
7E003E
7C001F
F8001F
ENDCHAR

STARTCHAR B
ENCODING 66
SWIDTH 580 0
DWIDTH 19 0
BBX 18 25 2 0
BITMAP
07FE00
0FFF00
0FFF80
0FFFC0
0F9FC0
0F07C0
0F07C0
1F0780
1F0F80
1F3F80
1FFF00
1FFC00
3FFF00
3FFF80
3E3F80
3E0F80
3C0780
3C0780
7C0F80
7C1F80
7C7F00
7FFE00
7FFE00
FFF800
FFE000
ENDCHAR

STARTCHAR C
ENCODING 67
SWIDTH 780 0
DWIDTH 25 0
BBX 26 25 3 0
BITMAP
001FF000
007FFC00
01FFFE00
03FFFF00
07FC7F80
0FE01F80
1F800FC0
3F000000
3E000000
7C000000
7C000000
7C000000
F8000000
F8000000
F8000000
F8000000
FC000000
7C000000
7E007E00
7F00FE00
3FE7FC00
1FFFF800
0FFFE000
07FFC000
01FE0000
ENDCHAR

STARTCHAR D
ENCODING 68
SWIDTH 700 0
DWIDTH 23 0
BBX 22 25 2 0
BITMAP
07FF00
0FFFC0
0FFFF0
0FFFF0
0F9FF8
0F01F8
0F00FC
1F007C
1F007C
1F007C
1F003C
1E003C
3E007C
3E007C
3E007C
3E00F8
3C00F8
3C01F0
7C03F0
7C0FE0
7CFFC0
7FFF80
7FFF00
FFFC00
FFF000
ENDCHAR

STARTCHAR E
ENCODING 69
SWIDTH 520 0
DWIDTH 17 0
BBX 18 25 2 0
BITMAP
07FFC0
0FFFC0
0FFFC0
0FFFC0
0F8000
0F0000
0F0000
1F0000
1F0000
1F0000
1F0000
1FFF00
3FFE00
3FFE00
3FFE00
3E0000
3C0000
3C0000
7C0000
7C0000
7C0000
7FFC00
7FFC00
FFFC00
FFFC00
ENDCHAR

STARTCHAR F
ENCODING 70
SWIDTH 480 0
DWIDTH 16 0
BBX 17 25 2 0
BITMAP
07FF80
0FFF80
0FFF80
0FFF80
0F8000
0F0000
0F0000
1F0000
1F0000
1F0000
1F0000
1FFE00
3FFE00
3FFE00
3FFC00
3E0000
3C0000
3C0000
7C0000
7C0000
7C0000
7C0000
780000
F80000
F80000
ENDCHAR

STARTCHAR G
ENCODING 71
SWIDTH 840 0
DWIDTH 27 0
BBX 26 25 3 0
BITMAP
001FF000
007FFC00
01FFFE00
03FFFF00
07FCFF80
0FE03F80
1F800FC0
1F000FC0
3E000000
3C000000
7C000000
7C000000
78000000
F83FFFC0
F83FFFC0
F83FFFC0
F83FFF80
FC001F80
7C003F00
7E007E00
3FC3FC00
3FFFF800
1FFFF000
07FFC000
01FF0000
ENDCHAR

STARTCHAR H
ENCODING 72
SWIDTH 680 0
DWIDTH 22 0
BBX 22 25 2 0
BITMAP
07803C
0F803C
0F807C
0F807C
0F807C
0F0078
0F0078
1F00F8
1F00F8
1F00F8
1FFFF8
1FFFF0
3FFFF0
3FFFF0
3E01F0
3E01F0
3C01E0
3C01E0
7C03E0
7C03E0
7C03E0
7803E0
7803C0
F807C0
F807C0
ENDCHAR

STARTCHAR I
ENCODING 73
SWIDTH 280 0
DWIDTH 9 0
BBX 9 25 2 0
BITMAP
0780
0F80
0F80
0F80
0F80
0F00
0F00
1F00
1F00
1F00
1F00
1E00
3E00
3E00
3E00
3E00
3C00
3C00
7C00
7C00
7C00
7C00
7800
F800
F800
ENDCHAR

STARTCHAR J
ENCODING 74
SWIDTH 480 0
DWIDTH 16 0
BBX 17 25 1 0
BITMAP
000780
000F80
000F80
000F80
000F80
000F00
000F00
001F00
001F00
001F00
001F00
001E00
003E00
003E00
003E00
003E00
003C00
007C00
007C00
FC7C00
7FF800
7FF800
7FF000
3FC000
0F0000
ENDCHAR

STARTCHAR K
ENCODING 75
SWIDTH 620 0
DWIDTH 20 0
BBX 22 25 2 0
BITMAP
0780FC
0F80F8
0F81F0
0F83E0
0F87C0
0F0F80
0F1F00
1F3F00
1F7E00
1FFC00
1FF800
1FF000
3FE000
3FF000
3FF000
3FF800
3CF800
3CFC00
7C7C00
7C7E00
7C3E00
7C3F00
781F80
F81F80
F80F80
ENDCHAR

STARTCHAR L
ENCODING 76
SWIDTH 440 0
DWIDTH 14 0
BBX 13 25 2 0
BITMAP
0780
0F80
0F80
0F80
0F80
0F00
0F00
1F00
1F00
1F00
1F00
1E00
3E00
3E00
3E00
3E00
3C00
3C00
7C00
7C00
7C00
7FF8
7FF8
FFF8
FFF0
ENDCHAR

STARTCHAR M
ENCODING 77
SWIDTH 900 0
DWIDTH 29 0
BBX 30 25 2 0
BITMAP
07E000FC
0FE001FC
0FF001FC
0FF003FC
0FF003FC
0FF007F8
0FF007F8
1FF00FF8
1F700FF8
1F781EF8
1F781EF8
1E783CF0
3E787DF0
3E7879F0
3E78F9F0
3E3CF1F0
3C3DE1E0
3C3DE1E0
7C3FC3E0
7C3FC3E0
7C3F83E0
783F83E0
781F03C0
F81F07C0
F81E07C0
ENDCHAR

STARTCHAR N
ENCODING 78
SWIDTH 740 0
DWIDTH 24 0
BBX 24 25 2 0
BITMAP
07C00F
0FE00F
0FE01F
0FE01F
0FF01F
0FF01E
0FF01E
1FF83E
1F783E
1F783E
1E7C3E
1E3C3C
3E3E3C
3E3E7C
3E1E7C
3E1F7C
3C0F78
3C0F78
7C0FF8
7C07F8
7C07F8
7807F8
7803F0
F803F0
F803F0
ENDCHAR

STARTCHAR O
ENCODING 79
SWIDTH 840 0
DWIDTH 27 0
BBX 26 25 3 0
BITMAP
001FF000
007FFC00
01FFFE00
03FFFF00
07FCFF80
0FE01F80
1F800FC0
3F0007C0
3E0007C0
7C0007C0
7C0007C0
7C0007C0
F80007C0
F80007C0
F80007C0
F8000F80
FC000F80
7C001F00
7E003F00
7F00FE00
3FE7FC00
1FFFF800
0FFFE000
07FFC000
01FE0000
ENDCHAR

STARTCHAR P
ENCODING 80
SWIDTH 560 0
DWIDTH 18 0
BBX 19 25 2 0
BITMAP
07FF00
0FFF80
0FFFC0
0FFFE0
0F87E0
0F03E0
0F03E0
1F03E0
1F03E0
1F07C0
1F1FC0
1FFF80
3FFF80
3FFE00
3FFC00
3E0000
3C0000
3C0000
7C0000
7C0000
7C0000
780000
780000
F80000
F80000
ENDCHAR

STARTCHAR Q
ENCODING 81
SWIDTH 840 0
DWIDTH 27 0
BBX 26 25 3 0
BITMAP
001FF000
007FFC00
01FFFE00
03FFFF00
07FCFF80
0FE01F80
1F800FC0
3F0007C0
3E0007C0
7C0007C0
7C0007C0
780003C0
F80003C0
FFE007C0
FFFC07C0
FFFF0F80
FFFF8F80
7C1FDF00
7E07FF00
7F03FE00
3FC3FC00
1FFFFF80
0FFFFF80
07FFFF80
01FF0F00
ENDCHAR

STARTCHAR R
ENCODING 82
SWIDTH 580 0
DWIDTH 19 0
BBX 20 25 2 0
BITMAP
07FF80
0FFFC0
0FFFE0
0FFFF0
0F87F0
0F81F0
0F01F0
1F01F0
1F01F0
1F01E0
1F03E0
1E0FC0
3FFFC0
3FFF80
3FFE00
3FF800
3DF800
3DF800
7CFC00
7CFC00
7C7E00
7C7E00
783F00
F83F00
F81F80
ENDCHAR

STARTCHAR S
ENCODING 83
SWIDTH 520 0
DWIDTH 17 0
BBX 18 25 2 0
BITMAP
00FE00
03FF00
07FF80
0FFF80
1F9FC0
1F0FC0
1E07C0
1E0000
1F0000
1FC000
1FF000
0FFC00
07FE00
01FF00
003F00
001F00
001F00
001F00
F81F00
F83E00
FC7E00
FFFC00
7FF800
3FF000
1FC000
ENDCHAR

STARTCHAR T
ENCODING 84
SWIDTH 420 0
DWIDTH 14 0
BBX 14 25 5 0
BITMAP
FFFC
FFFC
FFFC
FFF8
0F80
0F00
0F00
1F00
1F00
1F00
1F00
1E00
3E00
3E00
3E00
3E00
3C00
3C00
7C00
7C00
7C00
7C00
7800
F800
F800
ENDCHAR

STARTCHAR U
ENCODING 85
SWIDTH 640 0
DWIDTH 21 0
BBX 19 25 4 0
BITMAP
1E01E0
3E01E0
3E03E0
3E03E0
3E03E0
3C03C0
3C03C0
7C07C0
7C07C0
7C07C0
7C07C0
780780
F80F80
F80F80
F80F80
F80F80
F00F00
F01F00
F01F00
F83E00
FEFE00
FFFC00
7FF800
3FF000
1FC000
ENDCHAR

STARTCHAR V
ENCODING 86
SWIDTH 700 0
DWIDTH 23 0
BBX 22 25 5 0
BITMAP
F8007C
F8007C
F800F8
F800F8
7C01F0
7C01F0
7C03E0
7C03C0
7C07C0
3C0780
3E0F80
3E0F00
3E1F00
1E1E00
1E3E00
1F3C00
1F7C00
1F7800
0FF000
0FF000
0FE000
0FE000
0FC000
07C000
078000
ENDCHAR

STARTCHAR W
ENCODING 87
SWIDTH 900 0
DWIDTH 29 0
BBX 29 25 5 0
BITMAP
F8078078
F80F80F8
F80F80F0
F80F81F0
F81F81E0
F81F83E0
F83F83E0
F83F83C0
787F87C0
787B8780
78FB8F80
78F38F00
78F39F00
79E39E00
79E39E00
7BC3BC00
7BC3BC00
7FC3F800
3F83F800
3F83F000
3F03F000
3F03F000
3E03E000
3E03E000
3C03C000
ENDCHAR

STARTCHAR X
ENCODING 88
SWIDTH 680 0
DWIDTH 22 0
BBX 25 25 1 0
BITMAP
0F800F80
0FC01F80
07C03F00
07E03E00
03F07C00
03F0F800
01F9F000
01FBF000
00FFE000
00FFC000
007F8000
007F0000
003E0000
007F0000
00FF0000
01FF8000
03FF8000
07EFC000
07C7C000
0FC7E000
1F83E000
3F03F000
7E01F000
FC01F000
F800F800
ENDCHAR

STARTCHAR Y
ENCODING 89
SWIDTH 620 0
DWIDTH 20 0
BBX 20 25 5 0
BITMAP
F801F0
F803F0
7C03E0
7C07C0
7C0F80
3C0F80
3E1F00
3E3E00
3E3E00
1F7C00
1F7800
1FF800
0FF000
0FE000
0FE000
07C000
078000
078000
0F8000
0F8000
0F8000
0F8000
0F0000
1F0000
1F0000
ENDCHAR

STARTCHAR Z
ENCODING 90
SWIDTH 500 0
DWIDTH 16 0
BBX 19 25 1 0
BITMAP
0FFFE0
0FFFE0
0FFFC0
0FFFC0
000FC0
000F80
001F00
003F00
007E00
007C00
00F800
01F800
03F000
03E000
07C000
0FC000
1F8000
1F0000
3E0000
7E0000
FC0000
FFFE00
FFFE00
FFFE00
FFFE00
ENDCHAR

STARTCHAR bracketleft
ENCODING 91
SWIDTH 320 0
DWIDTH 11 0
BBX 11 29 3 -4
BITMAP
0060
01E0
03E0
07E0
0FC0
1F80
1F00
1E00
3E00
3E00
3E00
3C00
7C00
7C00
7C00
7C00
7800
7800
F800
F800
F800
F800
F800
FC00
FC00
7C00
7C00
3C00
1C00
ENDCHAR

STARTCHAR backslash
ENCODING 92
SWIDTH 640 0
DWIDTH 21 0
BBX 9 25 8 0
BITMAP
E000
E000
F000
F000
F000
7000
7800
7800
7800
3800
3C00
3C00
3C00
1C00
1E00
1E00
1E00
0E00
0F00
0F00
0F00
0700
0780
0780
0780
ENDCHAR

STARTCHAR bracketright
ENCODING 93
SWIDTH 320 0
DWIDTH 11 0
BBX 11 29 1 -4
BITMAP
0600
0780
0780
0FC0
0FE0
07E0
03E0
03E0
03E0
03E0
03E0
03C0
07C0
07C0
07C0
07C0
0780
0780
0F80
0F80
0F00
1F00
1F00
3E00
7E00
FC00
F800
F000
C000
ENDCHAR

STARTCHAR asciicircum
ENCODING 94
SWIDTH 600 0
DWIDTH 20 0
BBX 16 15 4 10
BITMAP
00F8
00F8
01F8
03FC
03FC
07FC
0FBE
0F3E
1F1E
3E1E
3C1F
780F
F80F
F00F
200C
ENDCHAR

STARTCHAR underscore
ENCODING 95
SWIDTH 500 0
DWIDTH 16 0
BBX 16 3 0 -5
BITMAP
FFFF
FFFF
FFFF
ENDCHAR

STARTCHAR quoteleft
ENCODING 96
SWIDTH 280 0
DWIDTH 9 0
BBX 6 9 6 16
BITMAP
0C
1C
38
70
E0
F8
F8
F8
F8
ENDCHAR

STARTCHAR a
ENCODING 97
SWIDTH 660 0
DWIDTH 21 0
BBX 21 19 2 0
BITMAP
007C78
03FF78
0FFFF8
1FFFF8
1F83F8
3E01F8
7E01F0
7C00F0
7800F0
F800F0
F801F0
F801E0
F803E0
FC07E0
7E0FE0
7FFFE0
3FFFE0
1FFBC0
07C3C0
ENDCHAR

STARTCHAR b
ENCODING 98
SWIDTH 660 0
DWIDTH 21 0
BBX 21 25 2 0
BITMAP
0F8000
0F8000
0F0000
0F0000
0F0000
1F0000
1F3F80
1FFFE0
1FFFF0
1FFFF0
3FE7F8
3F81F8
3E00F8
3E00F8
3C00F8
7C00F8
7C00F8
7C00F0
7C01F0
7E03F0
7F07E0
FFFFC0
FFFF80
F7FF00
F0F800
ENDCHAR

STARTCHAR c
ENCODING 99
SWIDTH 640 0
DWIDTH 21 0
BBX 20 19 2 0
BITMAP
00FF00
03FF80
07FFC0
0FFFE0
1FC7F0
3F03F0
3E01F0
7C0000
780000
F80000
F80000
F80000
FC0000
7C07C0
7F1FC0
3FFF80
3FFF00
1FFE00
07F000
ENDCHAR

STARTCHAR d
ENCODING 100
SWIDTH 660 0
DWIDTH 21 0
BBX 23 25 2 0
BITMAP
00003E
00003E
00003C
00003C
00003C
00007C
00FE7C
03FF7C
07FFF8
0FFFF8
1FC7F8
3F03F8
3E01F8
7C00F0
7800F0
F800F0
F801F0
F801F0
F803E0
FC07E0
7E0FE0
7FFFE0
3FFFE0
1FFBE0
03C3C0
ENDCHAR

STARTCHAR e
ENCODING 101
SWIDTH 640 0
DWIDTH 21 0
BBX 19 19 3 0
BITMAP
00FE00
03FF00
0FFF80
1FFFC0
3FCFE0
3E03E0
7C03E0
7801E0
FFFFE0
FFFFE0
FFFFE0
FFFFE0
F80000
F80000
FC1F80
7FFF00
7FFE00
3FFC00
0FE000
ENDCHAR

STARTCHAR f
ENCODING 102
SWIDTH 280 0
DWIDTH 9 0
BBX 12 25 2 0
BITMAP
01F0
03E0
07E0
0FE0
0F80
1F00
3FC0
7FC0
7FC0
7FC0
3E00
3E00
3E00
3C00
3C00
7C00
7C00
7C00
7800
7800
7800
F800
F800
F800
F000
ENDCHAR

STARTCHAR g
ENCODING 103
SWIDTH 660 0
DWIDTH 21 0
BBX 22 26 1 -7
BITMAP
003E3C
01FFBC
07FFFC
0FFFFC
0FC3FC
1F00FC
3E00F8
3E0078
3C0078
3C0078
3C00F8
3C00F0
3E01F0
3E03F0
3F8FF0
3FFFF0
1FFFE0
0FFDE0
03F3E0
0003C0
FC0FC0
FF3F80
7FFF00
3FFE00
3FFC00
0FF000
ENDCHAR

STARTCHAR h
ENCODING 104
SWIDTH 600 0
DWIDTH 19 0
BBX 18 25 2 0
BITMAP
0F8000
0F8000
0F0000
0F0000
0F0000
1F0000
1F7F00
1FFF80
1FFFC0
1FFFC0
3FCFC0
3F07C0
3E03C0
3E03C0
3C03C0
7C07C0
7C07C0
7C07C0
7C0780
780780
780780
F80F80
F80F80
F80F80
F00F00
ENDCHAR

STARTCHAR i
ENCODING 105
SWIDTH 240 0
DWIDTH 8 0
BBX 9 25 2 0
BITMAP
0F80
0F80
0F00
0F00
0000
0000
1F00
1F00
1E00
1E00
3E00
3E00
3E00
3C00
3C00
7C00
7C00
7C00
7800
7800
7800
F800
F800
F800
F000
ENDCHAR

STARTCHAR j
ENCODING 106
SWIDTH 260 0
DWIDTH 9 0
BBX 12 31 0 -6
BITMAP
01F0
01F0
01E0
01E0
0000
0000
03E0
03E0
03C0
03C0
07C0
07C0
07C0
0780
0780
0F80
0F80
0F80
0F00
0F00
0F00
1F00
1F00
1F00
1E00
3E00
7E00
FC00
F800
F000
E000
ENDCHAR

STARTCHAR k
ENCODING 107
SWIDTH 580 0
DWIDTH 19 0
BBX 18 25 2 0
BITMAP
0F8000
0F8000
0F0000
0F0000
0F0000
1F0000
1F07C0
1F0FC0
1E1F80
1E1F00
3E3E00
3E7C00
3EF800
3DF000
3FE000
7FE000
7FE000
7FF000
79F800
79F800
78FC00
F87C00
F87E00
F83F00
F03F00
ENDCHAR

STARTCHAR l
ENCODING 108
SWIDTH 240 0
DWIDTH 8 0
BBX 9 25 2 0
BITMAP
0F80
0F80
0F00
0F00
0F00
1F00
1F00
1F00
1E00
1E00
3E00
3E00
3E00
3C00
3C00
7C00
7C00
7C00
7800
7800
7800
F800
F800
F800
F000
ENDCHAR

STARTCHAR m
ENCODING 109
SWIDTH 940 0
DWIDTH 31 0
BBX 31 19 2 0
BITMAP
1E7E07E0
1FFF9FF8
1FFFFFFC
1FFFFFFC
3F8FF87E
3F07F03E
3E03E03C
3E03E03C
3C03C03C
7C07C07C
7C07C07C
7C07C07C
7C07C078
78078078
780F80F8
F80F80F8
F80F80F8
F80F80F8
F00F00F0
ENDCHAR

STARTCHAR n
ENCODING 110
SWIDTH 600 0
DWIDTH 19 0
BBX 19 19 2 0
BITMAP
1E3E00
1EFF80
1FFFC0
1FFFC0
3F8FC0
3F07E0
3E03E0
3E03E0
3C03C0
7C07C0
7C07C0
7C07C0
7C0780
780780
780780
F80F80
F80F80
F80F80
F00F00
ENDCHAR

STARTCHAR o
ENCODING 111
SWIDTH 640 0
DWIDTH 21 0
BBX 20 19 2 0
BITMAP
00FF00
03FF80
07FFC0
0FFFE0
1FC7F0
3F03F0
3E01F0
7C01F0
7801F0
F801F0
F801F0
F801E0
F803E0
7C07C0
7F1FC0
7FFF80
3FFF00
1FFC00
07F000
ENDCHAR

STARTCHAR p
ENCODING 112
SWIDTH 660 0
DWIDTH 21 0
BBX 22 25 1 -6
BITMAP
0F0F80
0F7FF0
0FFFF8
0FFFF8
1FE1FC
1F807C
1F007C
1F007C
1E007C
3E007C
3E007C
3E0078
3E00F8
3F01F0
3FCFF0
7FFFE0
7FFFC0
7FFF80
79FE00
780000
F80000
F80000
F80000
F00000
F00000
ENDCHAR

STARTCHAR q
ENCODING 113
SWIDTH 660 0
DWIDTH 21 0
BBX 21 25 3 -6
BITMAP
00F8F8
07FEF8
1FFFF0
3FFFF0
3F07F0
7C03F0
7C03F0
F801E0
F001E0
F001E0
F003E0
F003E0
F807C0
F80FC0
FE3FC0
FFFFC0
7FFFC0
3FF7C0
1FE780
000780
000F80
000F80
000F80
000F00
000F00
ENDCHAR

STARTCHAR r
ENCODING 114
SWIDTH 320 0
DWIDTH 10 0
BBX 12 19 2 0
BITMAP
1E70
1EF0
1FE0
1FE0
3F80
3F00
3E00
3E00
3C00
7C00
7C00
7C00
7800
7800
7800
F800
F800
F800
F000
ENDCHAR

STARTCHAR s
ENCODING 115
SWIDTH 440 0
DWIDTH 14 0
BBX 14 19 2 0
BITMAP
03F0
07F8
0FFC
1FFC
1F7C
3E00
3E00
3F80
1FE0
0FF8
07F8
00F8
0078
F878
FCF8
FFF0
7FE0
7FC0
1F80
ENDCHAR

STARTCHAR t
ENCODING 116
SWIDTH 300 0
DWIDTH 10 0
BBX 10 25 3 0
BITMAP
0F80
0F80
0F00
0F00
0F00
1F00
7FC0
7FC0
7FC0
FFC0
3E00
3E00
3E00
3C00
3C00
7C00
7C00
7C00
7800
7800
7800
F800
F800
F800
F000
ENDCHAR

STARTCHAR u
ENCODING 117
SWIDTH 600 0
DWIDTH 20 0
BBX 19 19 3 0
BITMAP
3E03E0
3E03E0
3C03C0
3C03C0
7C07C0
7C07C0
7C07C0
780780
780780
F80F80
F80F80
F80F80
F81F00
F81F00
FC3F00
FFFF00
7FFF00
3FFF00
0F9E00
ENDCHAR

STARTCHAR v
ENCODING 118
SWIDTH 560 0
DWIDTH 18 0
BBX 17 19 4 0
BITMAP
F80F80
F80F80
F81F00
F81F00
F81E00
7C3E00
7C3C00
7C7800
7C7800
3CF000
3CF000
3FE000
3FE000
3FC000
1FC000
1F8000
1F8000
1F0000
1E0000
ENDCHAR

STARTCHAR w
ENCODING 119
SWIDTH 800 0
DWIDTH 26 0
BBX 25 19 4 0
BITMAP
F81E0780
F83E0F80
F83E0F00
F83E1F00
F87E1E00
787E3E00
78FE3C00
7CEF3C00
7DEF7800
7DEF7800
7FCFF000
3FCFF000
3F8FE000
3F8FE000
3F07C000
3F07C000
3E078000
1E078000
1C070000
ENDCHAR

STARTCHAR x
ENCODING 120
SWIDTH 560 0
DWIDTH 18 0
BBX 20 19 1 0
BITMAP
0F81F0
0FC3E0
07C7C0
07CFC0
03FF80
03FF00
03FE00
01FC00
01FC00
01F800
03FC00
03FC00
07FE00
0FBE00
1FBF00
3F1F00
7E1F80
7C1F80
F80F80
ENDCHAR

STARTCHAR y
ENCODING 121
SWIDTH 580 0
DWIDTH 19 0
BBX 19 25 3 -6
BITMAP
7C03E0
7C07E0
7C07C0
7C0F80
7C0F80
3E1F00
3E1F00
3E3E00
3E3C00
1E7C00
1FF800
1FF800
1FF000
1FE000
0FE000
0FC000
0F8000
0F8000
1F0000
1F0000
3E0000
7C0000
7C0000
F80000
F80000
ENDCHAR

STARTCHAR z
ENCODING 122
SWIDTH 460 0
DWIDTH 15 0
BBX 17 19 0 0
BITMAP
07FF80
0FFF80
0FFF80
0FFF80
001F00
003E00
007C00
00F800
01F800
03F000
07E000
0FC000
1F8000
3F0000
7E0000
7FFE00
7FFE00
FFFE00
FFFE00
ENDCHAR

STARTCHAR braceleft
ENCODING 123
SWIDTH 340 0
DWIDTH 11 0
BBX 10 30 4 -5
BITMAP
03C0
0700
0F00
0E00
0E00
1E00
1E00
1E00
1C00
1C00
3C00
3C00
3800
7000
E000
7000
7000
7800
7000
7000
7000
F000
F000
F000
E000
E000
E000
E000
7000
1000
ENDCHAR

STARTCHAR bar
ENCODING 124
SWIDTH 600 0
DWIDTH 20 0
BBX 9 25 8 0
BITMAP
0F80
0F00
0F00
0F00
0F00
0F00
1E00
1E00
1E00
1E00
1E00
3E00
3C00
3C00
3C00
3C00
3C00
7800
7800
7800
7800
7800
F800
F000
F000
ENDCHAR

STARTCHAR braceright
ENCODING 125
SWIDTH 340 0
DWIDTH 11 0
BBX 10 30 1 -5
BITMAP
0380
01C0
01C0
01C0
01C0
03C0
03C0
03C0
0380
0380
0780
0780
0780
0380
01C0
0780
0700
0F00
0E00
0E00
0E00
1E00
1E00
1E00
1C00
1C00
3C00
3800
F000
4000
ENDCHAR

STARTCHAR asciitilde
ENCODING 126
SWIDTH 600 0
DWIDTH 19 0
BBX 17 6 3 8
BITMAP
0F0380
3FE780
7FFF00
7FFF00
F3FE00
E07800
ENDCHAR

STARTCHAR exclamdown
ENCODING 161
SWIDTH 280 0
DWIDTH 9 0
BBX 9 25 2 -6
BITMAP
0F80
0F80
0F80
0F80
0000
0000
0000
1E00
1E00
3E00
3E00
3E00
3C00
3C00
3C00
7C00
7C00
7C00
7800
7800
F800
F800
F800
F000
F000
ENDCHAR

STARTCHAR cent
ENCODING 162
SWIDTH 560 0
DWIDTH 18 0
BBX 16 22 3 1
BITMAP
00F0
00F0
00F0
03F8
0FFE
1FFE
3FFF
7E1F
7C0F
7800
F800
F800
F800
FC7E
7FFC
7FFC
3FF0
1FE0
0780
0F80
0F80
0F00
ENDCHAR

STARTCHAR sterling
ENCODING 163
SWIDTH 560 0
DWIDTH 18 0
BBX 19 25 2 0
BITMAP
007F00
01FF80
03FFC0
07FFC0
0FEFE0
0F83E0
1F03E0
1F0000
1E0000
1E0000
1F0000
7FFE00
7FFC00
7FFC00
FFFC00
07C000
03E3E0
03E3E0
03E3C0
03C7C0
07CFC0
FFFF80
FFFF00
FFFE00
FFF800
ENDCHAR

STARTCHAR currency
ENCODING 164
SWIDTH 560 0
DWIDTH 18 0
BBX 19 16 2 5
BITMAP
0CFC40
1FFFE0
1FFFE0
1FFFC0
1F8FC0
3E03E0
3C03E0
7C03E0
7C03C0
7C03C0
7C07C0
3E1F80
7FFF80
FFFF80
7FFF80
27F300
ENDCHAR

STARTCHAR yen
ENCODING 165
SWIDTH 560 0
DWIDTH 18 0
BBX 22 25 2 0
BITMAP
3E007C
3E00FC
1F00F8
1F01F0
1F03E0
0F03E0
0F87C0
0F8F80
0F8F80
7FDFE0
7FFFE0
7FFFE0
03FC00
03F800
03F800
01F000
FFFFC0
FFFFC0
FFFF80
03E000
03E000
03E000
03C000
07C000
07C000
ENDCHAR

STARTCHAR brokenbar
ENCODING 166
SWIDTH 600 0
DWIDTH 19 0
BBX 8 25 8 0
BITMAP
0F
0F
0F
0F
0F
0F
1E
1E
1E
1E
00
00
00
00
00
3C
3C
78
78
78
78
78
F8
F0
F0
ENDCHAR

STARTCHAR section
ENCODING 167
SWIDTH 560 0
DWIDTH 18 0
BBX 19 31 2 -5
BITMAP
007F00
01FF80
03FFC0
07FFE0
07C7E0
0783E0
078000
07C000
07F000
0FF800
1FFE00
3FFF80
3C7FC0
7C1FC0
7C07C0
7E03C0
7F83C0
3FC780
1FFF80
0FFF00
03FE00
00FE00
007E00
001E00
F81E00
F81E00
FC7E00
7FFC00
7FF800
3FF000
0FC000
ENDCHAR

STARTCHAR dieresis
ENCODING 168
SWIDTH 500 0
DWIDTH 16 0
BBX 12 4 7 21
BITMAP
F9F0
F9F0
F9F0
F9F0
ENDCHAR

STARTCHAR copyright
ENCODING 169
SWIDTH 740 0
DWIDTH 24 0
BBX 26 25 2 0
BITMAP
001FE000
00FFF800
01F07E00
07C01F00
0F000700
1E1F8380
1C3FE380
3879E180
70E0F1C0
71E071C0
61C001C0
E1C001C0
E38001C0
C3800180
C3800380
C3C0C380
E1C1C300
E1F7C700
E0FF8E00
707E1C00
78003800
3C00F000
1F07E000
0FFF8000
03FE0000
ENDCHAR

STARTCHAR ordfeminine
ENCODING 170
SWIDTH 360 0
DWIDTH 12 0
BBX 13 14 3 11
BITMAP
07B8
1FF8
1CF0
3870
3030
7070
7070
38E0
3FE0
1F60
0000
0000
FFC0
FFC0
ENDCHAR

STARTCHAR guillemotleft
ENCODING 171
SWIDTH 460 0
DWIDTH 15 0
BBX 13 10 3 6
BITMAP
0C18
1C38
78F0
F9F0
E1C0
E1C0
F1E0
F0E0
70E0
3060
ENDCHAR

STARTCHAR logicalnot
ENCODING 172
SWIDTH 600 0
DWIDTH 19 0
BBX 18 10 4 6
BITMAP
7FFFC0
7FFFC0
FFFFC0
FFFF80
000780
000780
000780
000780
000F00
000F00
ENDCHAR

STARTCHAR hyphen
ENCODING 173
SWIDTH 420 0
DWIDTH 14 0
BBX 9 4 5 9
BITMAP
FF80
FF80
FF80
FF80
ENDCHAR

STARTCHAR registered
ENCODING 174
SWIDTH 740 0
DWIDTH 24 0
BBX 26 25 2 0
BITMAP
001FE000
00FFF800
01F8FC00
07C01E00
0F000F00
1E000780
1C7FC380
38FFE380
30E0F180
70E071C0
60E071C0
E0C0E1C0
E1FFE1C0
C1FF8180
C1C70380
C1C70380
E1870700
E1838700
E3838E00
73839C00
78007800
3C00F000
1F0FE000
0FFF8000
03FE0000
ENDCHAR

STARTCHAR macron
ENCODING 175
SWIDTH 420 0
DWIDTH 14 0
BBX 9 4 7 20
BITMAP
FF80
FF80
FF80
FF80
ENDCHAR

STARTCHAR degree
ENCODING 176
SWIDTH 400 0
DWIDTH 13 0
BBX 10 10 6 15
BITMAP
0F00
3F80
71C0
E0C0
C0C0
C0C0
C180
E380
7F00
3C00
ENDCHAR

STARTCHAR plusminus
ENCODING 177
SWIDTH 600 0
DWIDTH 19 0
BBX 19 19 2 0
BITMAP
007800
007800
007800
007800
007800
3FFFE0
3FFFE0
3FFFE0
3FFFC0
00F000
00F000
01E000
01E000
000000
000000
FFFF80
FFFF80
FFFF80
FFFF80
ENDCHAR

STARTCHAR twosuperior
ENCODING 178
SWIDTH 336 0
DWIDTH 11 0
BBX 13 15 2 10
BITMAP
03C0
0FF0
1FF0
3C78
3838
2078
0070
01E0
03C0
0F80
1F00
3C00
FFE0
FFE0
FFE0
ENDCHAR

STARTCHAR threesuperior
ENCODING 179
SWIDTH 336 0
DWIDTH 11 0
BBX 11 15 3 10
BITMAP
0780
1FC0
3FE0
38E0
01E0
07C0
0780
07E0
01E0
00E0
E0E0
E1C0
FFC0
7F80
3E00
ENDCHAR

STARTCHAR acute
ENCODING 180
SWIDTH 420 0
DWIDTH 14 0
BBX 10 7 7 20
BITMAP
0180
0780
1FC0
7F80
FE00
7800
6000
ENDCHAR

STARTCHAR mu
ENCODING 181
SWIDTH 576 0
DWIDTH 19 0
BBX 21 25 1 -6
BITMAP
0F80F8
0F80F8
0F00F0
0F00F0
1F01F0
1F01F0
1F01F0
1E01E0
1E01E0
3E03E0
3E03E0
3E03E0
3E07C0
3E07C0
3F9FC0
7FFFC0
7FFFC0
7FFFC0
7FE780
780000
F80000
F80000
F80000
F00000
F00000
ENDCHAR

STARTCHAR paragraph
ENCODING 182
SWIDTH 600 0
DWIDTH 19 0
BBX 18 29 4 -4
BITMAP
03FFC0
0FFFC0
1FFF80
3FFF80
7FE380
7FE780
FFE780
FFC780
FFC700
FFC700
7FCF00
7FCF00
3FCF00
0F8E00
038E00
038E00
079E00
079E00
071C00
071C00
071C00
0F3C00
0F3C00
0E3C00
0E3800
0E3800
1E7800
1E7800
1E7800
ENDCHAR

STARTCHAR periodcentered
ENCODING 183
SWIDTH 280 0
DWIDTH 9 0
BBX 5 4 5 9
BITMAP
F8
F8
F8
F8
ENDCHAR

STARTCHAR cedilla
ENCODING 184
SWIDTH 340 0
DWIDTH 11 0
BBX 7 7 1 -7
BITMAP
20
7C
7E
06
CE
FC
78
ENDCHAR

STARTCHAR onesuperior
ENCODING 185
SWIDTH 336 0
DWIDTH 11 0
BBX 5 15 7 10
BITMAP
78
F8
F8
38
38
38
70
70
70
70
70
F0
E0
E0
E0
ENDCHAR

STARTCHAR ordmasculine
ENCODING 186
SWIDTH 360 0
DWIDTH 12 0
BBX 12 14 3 11
BITMAP
07C0
1FE0
1CF0
3870
3070
3070
3060
39E0
3FC0
1F00
0000
0000
FFC0
FFC0
ENDCHAR

STARTCHAR guillemotright
ENCODING 187
SWIDTH 460 0
DWIDTH 15 0
BBX 13 10 3 6
BITMAP
3060
3870
3C78
3C78
1C38
1C38
7CF8
78F0
E0C0
C180
ENDCHAR

STARTCHAR onequarter
ENCODING 188
SWIDTH 840 0
DWIDTH 27 0
BBX 22 25 5 0
BITMAP
7801C0
F803C0
F80380
380700
380F00
380E00
701E00
701C00
703800
707800
70701C
F0F03C
E0E078
E1C0F8
E3C1F8
0383B8
0783B8
070770
0E0E70
0E1C70
1C3FF8
3C3FF8
383FF8
7000E0
7000E0
ENDCHAR

STARTCHAR onehalf
ENCODING 189
SWIDTH 840 0
DWIDTH 27 0
BBX 23 25 5 0
BITMAP
780380
F80380
F80780
380F00
380E00
381E00
701C00
703800
707800
707000
70F0F0
F0E3FC
E1C7FE
E3CF1E
E38E0E
07881E
07001C
0E007C
1E00F0
1C01E0
3C07C0
380F00
701FF8
F03FF8
E03FF8
ENDCHAR

STARTCHAR threequarters
ENCODING 190
SWIDTH 840 0
DWIDTH 27 0
BBX 26 25 3 0
BITMAP
07801C00
0FC01C00
1FE03C00
18E03800
00E07000
07C07000
0780E000
07C1E000
01E1C000
00E38000
00E381C0
E1C703C0
E3CF0780
FF8E0F80
7F1E1F80
3C1C3B80
00383B80
00787700
0070E700
00F1C700
00E3FF80
01C3FF80
03C3FF80
03800E00
03800E00
ENDCHAR

STARTCHAR questiondown
ENCODING 191
SWIDTH 560 0
DWIDTH 18 0
BBX 14 25 3 -6
BITMAP
00F8
00F8
00F8
00F8
0000
0000
0000
01E0
01E0
03E0
07C0
0FC0
1F80
3F00
7E00
FC00
F800
F000
F03C
F07C
F8FC
FFF8
FFF0
7FE0
1F80
ENDCHAR

STARTCHAR Agrave
ENCODING 192
SWIDTH 740 0
DWIDTH 24 0
BBX 24 27 0 0
BITMAP
003000
003C00
007F00
003FC0
000FE0
0003C0
0003E0
0007E0
0007E0
000FE0
000FF0
001FF0
003E70
007C70
00F878
00F878
01FFFC
03FFFC
07FFFC
0FFFFC
0F807E
1F003E
1F003E
3E003E
7E003E
7C001F
F8001F
ENDCHAR

STARTCHAR Aacute
ENCODING 193
SWIDTH 740 0
DWIDTH 24 0
BBX 25 27 0 0
BITMAP
00000300
00000F00
00003F80
0000FF00
0001FC00
0000F000
0003E000
0007E000
0007E000
000FE000
000FF000
001FF000
003E7000
007C7000
00F87800
00F87800
01FFFC00
03FFFC00
07FFFC00
0FFFFC00
0F807E00
1F003E00
1F003E00
3E003E00
7E003E00
7C001F00
F8001F00
ENDCHAR

STARTCHAR Acircumflex
ENCODING 194
SWIDTH 740 0
DWIDTH 24 0
BBX 24 27 0 0
BITMAP
0003E0
0007F0
000FF8
001E7C
003C3C
000000
0003E0
0007E0
0007E0
000FE0
000FF0
001FF0
003E70
007C70
00F878
00F878
01FFFC
03FFFC
07FFFC
0FFFFC
0F807E
1F003E
1F003E
3E003E
7E003E
7C001F
F8001F
ENDCHAR

STARTCHAR Atilde
ENCODING 195
SWIDTH 740 0
DWIDTH 24 0
BBX 24 27 0 0
BITMAP
000F90
001FF8
001FF8
0009F0
000000
000000
0003E0
0007E0
0007E0
000FE0
000FF0
001FF0
003E70
007C70
00F878
00F878
01FFFC
03FFFC
07FFFC
0FFFFC
0F807E
1F003E
1F003E
3E003E
7E003E
7C001F
F8001F
ENDCHAR

STARTCHAR Adieresis
ENCODING 196
SWIDTH 740 0
DWIDTH 24 0
BBX 24 27 0 0
BITMAP
000F9F
000F9F
000F9F
000F9F
000000
000000
0003E0
0007E0
0007E0
000FE0
000FF0
001FF0
003E70
007C70
00F878
00F878
01FFFC
03FFFC
07FFFC
0FFFFC
0F807E
1F003E
1F003E
3E003E
7E003E
7C001F
F8001F
ENDCHAR

STARTCHAR Aring
ENCODING 197
SWIDTH 740 0
DWIDTH 24 0
BBX 24 27 0 0
BITMAP
0001E0
0003F0
000770
000770
0007E0
0003C0
0003E0
0007E0
0007E0
000FE0
000FF0
001FF0
003E70
007C70
00F878
00F878
01FFFC
03FFFC
07FFFC
0FFFFC
0F807E
1F003E
1F003E
3E003E
7E003E
7C001F
F8001F
ENDCHAR

STARTCHAR AE
ENCODING 198
SWIDTH 900 0
DWIDTH 29 0
BBX 32 25 1 0
BITMAP
00000FFF
00001FFF
00003FFE
00007FFE
0000FF00
0000FE00
0001FE00
0003FE00
0007FE00
000FBE00
000F3E00
001F3FF8
003E7FF8
007C7FF8
00FFFFF8
01FFFC00
01FFF800
03FFF800
07FFF800
0F80F800
1F80F800
3F00FFF0
3E00FFF0
7C01FFE0
F801FFE0
ENDCHAR

STARTCHAR Ccedilla
ENCODING 199
SWIDTH 780 0
DWIDTH 25 0
BBX 26 32 3 -7
BITMAP
001FF000
007FFC00
01FFFE00
03FFFF00
07FC7F80
0FE01F80
1F800FC0
3F000000
3E000000
7C000000
7C000000
7C000000
F8000000
F8000000
F8000000
F8000000
FC000000
7C000000
7E007E00
7F00FE00
3FE7FC00
1FFFF800
0FFFE000
07FFC000
01FE0000
00100000
003E0000
003F0000
00030000
00670000
007E0000
003C0000
ENDCHAR

STARTCHAR Egrave
ENCODING 200
SWIDTH 520 0
DWIDTH 17 0
BBX 18 27 2 0
BITMAP
060000
078000
0FE000
07F800
01FC00
007800
07FFC0
07FFC0
0FFFC0
0FFFC0
0F8000
0F0000
1F0000
1F0000
1FFE00
1FFE00
3FFE00
3FFE00
3C0000
3C0000
7C0000
7C0000
7C0000
7FFC00
7FFC00
FFFC00
FFFC00
ENDCHAR

STARTCHAR Eacute
ENCODING 201
SWIDTH 520 0
DWIDTH 17 0
BBX 18 27 2 0
BITMAP
000180
000780
001FC0
007F80
00FE00
007800
07FFC0
07FFC0
0FFFC0
0FFFC0
0F8000
0F0000
1F0000
1F0000
1FFE00
1FFE00
3FFE00
3FFE00
3C0000
3C0000
7C0000
7C0000
780000
7FFC00
7FFC00
FFFC00
FFFC00
ENDCHAR

STARTCHAR Ecircumflex
ENCODING 202
SWIDTH 520 0
DWIDTH 17 0
BBX 18 27 2 0
BITMAP
007C00
00FE00
01FF00
03CF80
078780
000000
07FFC0
07FFC0
0FFFC0
0FFFC0
0F8000
0F0000
1F0000
1F0000
1FFE00
1FFE00
3FFE00
3FFE00
3C0000
3C0000
7C0000
7C0000
780000
7FFC00
7FFC00
FFFC00
FFFC00
ENDCHAR

STARTCHAR Edieresis
ENCODING 203
SWIDTH 520 0
DWIDTH 17 0
BBX 18 27 2 0
BITMAP
07CF80
07CF80
07CF80
07CF80
000000
000000
07FFC0
07FFC0
0FFFC0
0FFFC0
0F8000
0F0000
1F0000
1F0000
1FFE00
1FFE00
3FFE00
3FFE00
3C0000
3C0000
7C0000
7C0000
780000
7FFC00
7FFC00
FFFC00
FFFC00
ENDCHAR

STARTCHAR Igrave
ENCODING 204
SWIDTH 280 0
DWIDTH 9 0
BBX 10 27 2 0
BITMAP
6000
7800
FE00
7F80
1FC0
0780
07C0
07C0
0F80
0F80
0F00
0F00
1F00
1E00
1E00
1E00
3E00
3E00
3C00
3C00
7C00
7C00
7C00
7C00
7800
F800
F800
ENDCHAR

STARTCHAR Iacute
ENCODING 205
SWIDTH 280 0
DWIDTH 9 0
BBX 15 27 2 0
BITMAP
000C
003C
00FE
03FC
07F0
03C0
03C0
07C0
07C0
0F80
0F80
0F80
1F00
1F00
1F00
1E00
3E00
3E00
3E00
3E00
7C00
7C00
7C00
7C00
7800
F800
F800
ENDCHAR

STARTCHAR Icircumflex
ENCODING 206
SWIDTH 280 0
DWIDTH 9 0
BBX 13 27 2 0
BITMAP
07C0
0FE0
1FF0
3CF8
7878
0000
07C0
07C0
0780
0F80
0F80
0F80
1F00
1F00
1F00
1E00
3E00
3E00
3E00
3E00
7C00
7C00
7C00
7C00
7800
F800
F800
ENDCHAR

STARTCHAR Idieresis
ENCODING 207
SWIDTH 280 0
DWIDTH 9 0
BBX 14 27 2 0
BITMAP
3E7C
3E7C
3E7C
3E7C
0000
0000
07C0
07C0
0780
0F80
0F80
0F80
1F00
1F00
1F00
1E00
3E00
3E00
3E00
3E00
7C00
7C00
7C00
7C00
7800
F800
F800
ENDCHAR

STARTCHAR Eth
ENCODING 208
SWIDTH 742 0
DWIDTH 24 0
BBX 24 25 2 0
BITMAP
03FFC0
07FFF0
07FFF8
07FFFC
07FFFE
07C0FE
07807F
0F803F
0F801F
0F801F
0F801F
FFF01F
FFF01F
FFF01F
FFF01F
1F003E
1F003E
1E007C
3E00FC
3E03F8
3E1FF0
3FFFE0
3FFFC0
7FFF00
7FFC00
ENDCHAR

STARTCHAR Ntilde
ENCODING 209
SWIDTH 740 0
DWIDTH 24 0
BBX 25 27 2 0
BITMAP
000F9000
001FF800
001FF800
0009F000
00000000
00000000
07C00F80
07E00F80
07E01F00
0FF01F00
0FF01F00
0FF81E00
0FF83E00
1FFC3E00
1F3C3C00
1E3E7C00
3E1E7C00
3E1F7C00
3E0F7800
3C0F7800
7C0FF800
7C07F800
7C07F800
7807F800
7803F000
F803F000
F803F000
ENDCHAR

STARTCHAR Ograve
ENCODING 210
SWIDTH 840 0
DWIDTH 27 0
BBX 26 27 3 0
BITMAP
00600000
00780000
00FE0000
007F8000
001FC000
00078000
003FE000
00FFF800
03FFFC00
07FFFE00
0FF9FF00
1FC03F00
3F001F80
7E000FC0
7C000FC0
F80007C0
F80007C0
F8000F80
F8000F80
F8001F00
7C003F00
7E00FE00
3FE7FC00
1FFFF800
0FFFE000
07FFC000
01FE0000
ENDCHAR

STARTCHAR Oacute
ENCODING 211
SWIDTH 840 0
DWIDTH 27 0
BBX 26 27 3 0
BITMAP
00006000
0001E000
0007F000
001FE000
003F8000
001E0000
003FE000
00FFF800
03FFFC00
07FFFE00
0FF9FF00
1FC03F00
3F001F80
7E000FC0
7C000FC0
F80007C0
F80007C0
F8000F80
F8000F80
F8001F00
7C003F00
7E00FE00
3FE7FC00
1FFFF800
0FFFE000
07FFC000
01FE0000
ENDCHAR

STARTCHAR Ocircumflex
ENCODING 212
SWIDTH 840 0
DWIDTH 27 0
BBX 26 27 3 0
BITMAP
0007C000
000FE000
001FF000
003CF800
00787800
00000000
003FE000
00FFF800
03FFFC00
07FFFE00
0FF9FF00
1FC03F00
3F001F80
7E000FC0
7C000FC0
F80007C0
F80007C0
F8000F80
F8000F80
F8001F00
7C003F00
7E00FE00
3FE7FC00
1FFFF800
0FFFE000
07FFC000
01FE0000
ENDCHAR

STARTCHAR Otilde
ENCODING 213
SWIDTH 840 0
DWIDTH 27 0
BBX 26 27 3 0
BITMAP
000F9000
001FF800
001FF800
0009F000
00000000
00000000
003FE000
00FFF800
03FFFC00
07FFFE00
0FF9FF00
1FC03F00
3F001F80
7E000FC0
7C000FC0
F80007C0
F80007C0
F8000F80
F8000F80
F8001F00
7C003F00
7E00FE00
3FE7FC00
1FFFF800
0FFFE000
07FFC000
01FE0000
ENDCHAR

STARTCHAR Odieresis
ENCODING 214
SWIDTH 840 0
DWIDTH 27 0
BBX 26 27 3 0
BITMAP
00F9F000
00F9F000
00F9F000
00F9F000
00000000
00000000
003FE000
00FFF800
03FFFC00
07FFFE00
0FF9FF00
1FC03F00
3F001F80
7E000FC0
7C000FC0
F80007C0
F80007C0
F8000F80
F8000F80
F8001F00
7C003F00
7E00FE00
3FE7FC00
1FFFF800
0FFFE000
07FFC000
01FE0000
ENDCHAR

STARTCHAR multiply
ENCODING 215
SWIDTH 600 0
DWIDTH 19 0
BBX 19 16 3 2
BITMAP
0E01C0
3E03E0
3F07C0
1F9F80
0FFF00
07FE00
03FC00
01F000
07F800
0FFC00
1FFE00
3F3E00
7C1F00
F81F00
700E00
200400
ENDCHAR

STARTCHAR Oslash
ENCODING 216
SWIDTH 840 0
DWIDTH 27 0
BBX 26 29 3 -2
BITMAP
00000180
000003C0
001FF7C0
007FFFC0
01FFFF80
03FFFF00
07FCFF80
0FC07F80
1F80FFC0
3F01F7C0
3E03F7C0
7C07E7C0
7C0FC3C0
7C1F87C0
F81F07C0
F83E07C0
F87C07C0
F8FC0F80
FDF81F80
7FF01F00
7FE07E00
7FC0FE00
3FE7FC00
1FFFF800
3FFFE000
7FFFC000
7DFE0000
78000000
10000000
ENDCHAR

STARTCHAR Ugrave
ENCODING 217
SWIDTH 640 0
DWIDTH 21 0
BBX 19 27 4 0
BITMAP
030000
03C000
07F000
03FC00
00FE00
003C00
1E0DE0
1E01E0
1E01E0
3E03E0
3E03E0
3C03C0
7C07C0
780780
780780
780780
780F80
F80F80
F00F00
F01F00
F01F00
F83E00
FEFE00
FFFC00
7FF800
3FF000
1FC000
ENDCHAR

STARTCHAR Uacute
ENCODING 218
SWIDTH 640 0
DWIDTH 21 0
BBX 19 27 4 0
BITMAP
0000C0
0003C0
000FE0
003FC0
007F00
003C00
1E31E0
1E01E0
1E01E0
3E03E0
3E03E0
3C03C0
3C03C0
7C0780
780780
780780
780F80
F80F80
F00F00
F01F00
F01F00
F83E00
FEFE00
FFFC00
7FF800
3FF000
1FC000
ENDCHAR

STARTCHAR Ucircumflex
ENCODING 219
SWIDTH 640 0
DWIDTH 21 0
BBX 19 27 4 0
BITMAP
007C00
00FE00
01FF00
03CF80
078780
000000
1E01E0
1E01E0
1E01E0
3E03E0
3E03E0
3C03C0
3C03C0
7C0780
780780
780780
780F80
F80F80
F00F00
F01F00
F01F00
F83E00
FEFE00
FFFC00
7FF800
3FF000
1FC000
ENDCHAR

STARTCHAR Udieresis
ENCODING 220
SWIDTH 640 0
DWIDTH 21 0
BBX 19 27 4 0
BITMAP
03E7C0
03E7C0
03E7C0
03E7C0
000000
000000
1E01E0
1E01E0
1E01E0
3E03E0
3E03E0
3C03C0
3C03C0
7C0780
780780
780780
780F80
F80F80
F00F00
F01F00
F01F00
F83E00
FEFE00
FFFC00
7FF800
3FF000
1FC000
ENDCHAR

STARTCHAR Yacute
ENCODING 221
SWIDTH 620 0
DWIDTH 20 0
BBX 20 27 5 0
BITMAP
000300
000F00
003F80
00FF00
01FC00
00F000
F8C1F0
F803F0
7C07E0
3C0FC0
3E1F80
1E3F00
1F7E00
1FFC00
0FF800
0FF000
0FE000
07C000
078000
078000
0F8000
0F8000
0F8000
0F8000
0F0000
1F0000
1F0000
ENDCHAR

STARTCHAR Thorn
ENCODING 222
SWIDTH 560 0
DWIDTH 18 0
BBX 18 25 2 0
BITMAP
078000
0F8000
0F8000
0F8000
0F8000
0FFE00
0FFF80
1FFF80
1FFFC0
1F0FC0
1F07C0
1E07C0
3E07C0
3E07C0
3E0FC0
3E3F80
3FFF00
3FFF00
7FFC00
7FF800
7C0000
780000
780000
F80000
F80000
ENDCHAR

STARTCHAR germandbls
ENCODING 223
SWIDTH 600 0
DWIDTH 19 0
BBX 19 25 2 0
BITMAP
00FE00
01FF00
03FF80
07FF80
0FCF80
0F07C0
1F07C0
1F0780
1E0F80
1E0F80
3E7F00
3E7E00
3E7F80
3CFFC0
3C1FC0
7C07E0
7C03E0
7C03E0
7F03C0
7F07C0
7F8FC0
FFFF80
F7FF00
F7FE00
F3F800
ENDCHAR

STARTCHAR agrave
ENCODING 224
SWIDTH 660 0
DWIDTH 21 0
BBX 21 27 2 0
BITMAP
006000
007800
00FE00
007F80
001FC0
000780
000180
000000
007C78
03FF78
0FFFF8
1FFFF8
1F83F8
3E01F8
7E01F0
7C00F0
7800F0
F800F0
F801F0
F801E0
F803E0
FC07E0
7E0FE0
7FFFE0
3FFFE0
1FFBC0
07C3C0
ENDCHAR

STARTCHAR aacute
ENCODING 225
SWIDTH 660 0
DWIDTH 21 0
BBX 21 27 2 0
BITMAP
0000C0
0003C0
000FE0
003FC0
007F00
003C00
003000
000000
007C78
03FF78
0FFFF8
1FFFF8
1F83F8
3E01F8
7E01F0
7C00F0
7800F0
F800F0
F801F0
F801E0
F803E0
FC07E0
7E0FE0
7FFFE0
3FFFE0
1FFBC0
07C3C0
ENDCHAR

STARTCHAR acircumflex
ENCODING 226
SWIDTH 660 0
DWIDTH 21 0
BBX 21 25 2 0
BITMAP
0007C0
000FE0
001FF0
003CF8
007878
000000
007C78
03FF78
0FFFF8
1FFFF8
1F83F8
3E01F8
7E01F0
7C00F0
7800F0
F800F0
F801F0
F801E0
F803E0
FC07E0
7E0FE0
7FFFE0
3FFFE0
1FFBC0
07C3C0
ENDCHAR

STARTCHAR atilde
ENCODING 227
SWIDTH 660 0
DWIDTH 21 0
BBX 21 25 2 0
BITMAP
003E40
007FE0
007FE0
0027C0
000000
000000
007C78
03FF78
0FFFF8
1FFFF8
1F83F8
3E01F8
7E01F0
7C00F0
7800F0
F800F0
F801F0
F801E0
F803E0
FC07E0
7E0FE0
7FFFE0
3FFFE0
1FFBC0
07C3C0
ENDCHAR

STARTCHAR adieresis
ENCODING 228
SWIDTH 660 0
DWIDTH 21 0
BBX 21 25 2 0
BITMAP
007CF8
007CF8
007CF8
007CF8
000000
000000
007C78
03FF78
0FFFF8
1FFFF8
1F83F8
3E01F8
7E01F0
7C00F0
7800F0
F800F0
F801F0
F801E0
F803E0
FC07E0
7E0FE0
7FFFE0
3FFFE0
1FFBC0
07C3C0
ENDCHAR

STARTCHAR aring
ENCODING 229
SWIDTH 660 0
DWIDTH 21 0
BBX 21 27 2 0
BITMAP
000780
000FC0
001DC0
001DC0
001F80
000F00
000000
000000
007C78
03FF78
0FFFF8
1FFFF8
1F83F8
3E01F8
7E01F0
7C00F0
7800F0
F800F0
F801F0
F801E0
F803E0
FC07E0
7E0FE0
7FFFE0
3FFFE0
1FFBC0
07C3C0
ENDCHAR

STARTCHAR ae
ENCODING 230
SWIDTH 1080 0
DWIDTH 35 0
BBX 35 19 2 0
BITMAP
00FE78FC00
03FFFBFF00
07FFFFFF80
0FFFFFFFC0
1FEFFF9FC0
3F03FE07C0
3E01F803E0
7C01F803E0
7C01FFFFE0
7801FFFFE0
F801FFFFC0
F801FFFFC0
F803F00000
FC07F80000
7E1FFC3F80
7FFFFFFF00
3FFFFFFC00
1FFFDFF800
07F3CFE000
ENDCHAR

STARTCHAR ccedilla
ENCODING 231
SWIDTH 640 0
DWIDTH 21 0
BBX 20 26 2 -7
BITMAP
00FF00
03FF80
07FFC0
0FFFE0
1FC7F0
3F03F0
3E01F0
7C0000
780000
F80000
F80000
F80000
FC0000
7C07C0
7F1FC0
3FFF80
3FFF00
1FFE00
07F000
008000
01F000
01F800
001800
033800
03F000
01E000
ENDCHAR

STARTCHAR egrave
ENCODING 232
SWIDTH 640 0
DWIDTH 21 0
BBX 19 27 3 0
BITMAP
060000
078000
0FE000
07F800
01FC00
007800
001800
000000
00FE00
03FF00
0FFF80
1FFFC0
3FCFE0
3E03E0
7C03E0
7801E0
FFFFE0
FFFFE0
FFFFE0
FFFFE0
F80000
F80000
FC1F80
7FFF00
7FFE00
3FFC00
0FE000
ENDCHAR

STARTCHAR eacute
ENCODING 233
SWIDTH 640 0
DWIDTH 21 0
BBX 19 27 3 0
BITMAP
0000C0
0003C0
000FE0
003FC0
007F00
003C00
003000
000000
00FE00
03FF00
0FFF80
1FFFC0
3FCFE0
3E03E0
7C03E0
7801E0
FFFFE0
FFFFE0
FFFFE0
FFFFE0
F80000
F80000
FC1F80
7FFF00
7FFE00
3FFC00
0FE000
ENDCHAR

STARTCHAR ecircumflex
ENCODING 234
SWIDTH 640 0
DWIDTH 21 0
BBX 19 25 3 0
BITMAP
003E00
007F00
00FF80
01E7C0
03C3C0
000000
00FE00
03FF00
0FFF80
1FFFC0
3FCFE0
3E03E0
7C03E0
7801E0
FFFFE0
FFFFE0
FFFFE0
FFFFE0
F80000
F80000
FC1F80
7FFF00
7FFE00
3FFC00
0FE000
ENDCHAR

STARTCHAR edieresis
ENCODING 235
SWIDTH 640 0
DWIDTH 21 0
BBX 19 25 3 0
BITMAP
01F3E0
01F3E0
01F3E0
01F3E0
000000
000000
00FE00
03FF00
0FFF80
1FFFC0
3FCFE0
3E03E0
7C03E0
7801E0
FFFFE0
FFFFE0
FFFFE0
FFFFE0
F80000
F80000
FC1F80
7FFF00
7FFE00
3FFC00
0FE000
ENDCHAR

STARTCHAR igrave
ENCODING 236
SWIDTH 240 0
DWIDTH 8 0
BBX 10 27 1 0
BITMAP
6000
7800
FE00
7F80
1FC0
0780
0180
0000
0F80
0F80
0F00
0F00
1F00
1F00
1F00
1E00
1E00
3E00
3E00
3E00
3C00
3C00
3C00
7C00
7C00
7C00
7800
ENDCHAR

STARTCHAR iacute
ENCODING 237
SWIDTH 240 0
DWIDTH 8 0
BBX 13 27 2 0
BITMAP
0030
00F0
03F8
0FF0
1FC0
0F00
0C00
0000
1F00
1F00
1E00
1E00
3E00
3E00
3E00
3C00
3C00
7C00
7C00
7C00
7800
7800
7800
F800
F800
F800
F000
ENDCHAR

STARTCHAR icircumflex
ENCODING 238
SWIDTH 240 0
DWIDTH 8 0
BBX 12 25 2 0
BITMAP
0F80
1FC0
3FE0
79F0
F0F0
0000
1F00
1F00
1E00
1E00
3E00
3E00
3E00
3C00
3C00
7C00
7C00
7C00
7800
7800
7800
F800
F800
F800
F000
ENDCHAR

STARTCHAR idieresis
ENCODING 239
SWIDTH 240 0
DWIDTH 8 0
BBX 12 25 0 0
BITMAP
F9F0
F9F0
F9F0
F9F0
0000
0000
07C0
07C0
0780
0780
0F80
0F80
0F80
0F00
0F00
1F00
1F00
1F00
1E00
1E00
1E00
3E00
3E00
3E00
3C00
ENDCHAR

STARTCHAR eth
ENCODING 240
SWIDTH 640 0
DWIDTH 21 0
BBX 20 26 2 0
BITMAP
038180
03F780
00FF00
00FE00
03FF00
01C780
0003C0
00FFE0
03FFE0
07FFF0
0FFFF0
1FC7F0
3F03F0
3E01F0
7C01F0
7801F0
F801F0
F801F0
F801E0
F803E0
7C07C0
7F1FC0
7FFF80
3FFF00
1FFC00
07F000
ENDCHAR

STARTCHAR ntilde
ENCODING 241
SWIDTH 600 0
DWIDTH 20 0
BBX 19 25 2 0
BITMAP
01F200
03FF00
03FF00
013E00
000000
000000
1E3E00
1EFF80
1FFFC0
1FFFC0
3F8FC0
3F07E0
3E03C0
3E03C0
3C03C0
7C07C0
7C07C0
7C07C0
7C0780
780780
780780
F80F80
F80F80
F80F80
F00F00
ENDCHAR

STARTCHAR ograve
ENCODING 242
SWIDTH 640 0
DWIDTH 21 0
BBX 20 27 2 0
BITMAP
030000
03C000
07F000
03FC00
00FE00
003C00
000C00
000000
00FF00
03FF80
07FFC0
0FFFE0
1FC7F0
3F03F0
3E01F0
7C01F0
7801F0
F801F0
F801F0
F801E0
F803E0
7C07C0
7F1FC0
7FFF80
3FFF00
1FFC00
07F000
ENDCHAR

STARTCHAR oacute
ENCODING 243
SWIDTH 640 0
DWIDTH 21 0
BBX 20 27 2 0
BITMAP
0000C0
0003C0
000FE0
003FC0
007F00
003C00
003000
000000
00FF00
03FF80
07FFC0
0FFFE0
1FC7F0
3F03F0
3E01F0
7C01F0
7801F0
F801F0
F801F0
F801E0
F803E0
7C07C0
7F1FC0
7FFF80
3FFF00
1FFC00
07F000
ENDCHAR

STARTCHAR ocircumflex
ENCODING 244
SWIDTH 640 0
DWIDTH 21 0
BBX 20 25 2 0
BITMAP
001F00
003F80
007FC0
00F3E0
01E1E0
000000
00FF00
03FF80
07FFC0
0FFFE0
1FC7F0
3F03F0
3E01F0
7C01F0
7801F0
F801F0
F801F0
F801E0
F803E0
7C07C0
7F1FC0
7FFF80
3FFF00
1FFC00
07F000
ENDCHAR

STARTCHAR otilde
ENCODING 245
SWIDTH 640 0
DWIDTH 21 0
BBX 20 25 2 0
BITMAP
00F900
01FF80
01FF80
009F00
000000
000000
00FF00
03FF80
07FFC0
0FFFE0
1FC7F0
3F03F0
3E01F0
7C01F0
7801F0
F801F0
F801F0
F801E0
F803E0
7C07C0
7F1FC0
7FFF80
3FFF00
1FFC00
07F000
ENDCHAR

STARTCHAR odieresis
ENCODING 246
SWIDTH 640 0
DWIDTH 21 0
BBX 20 25 2 0
BITMAP
01F3E0
01F3E0
01F3E0
01F3E0
000000
000000
00FF00
03FF80
07FFC0
0FFFE0
1FC7F0
3F03F0
3E01F0
7C01F0
7801F0
F801F0
F801F0
F801E0
F803E0
7C07C0
7F1FC0
7FFF80
3FFF00
1FFC00
07F000
ENDCHAR

STARTCHAR divide
ENCODING 247
SWIDTH 600 0
DWIDTH 19 0
BBX 18 17 3 2
BITMAP
00F000
00F000
00F000
00F000
000000
000000
7FFFC0
7FFFC0
FFFF80
FFFF80
000000
000000
000000
03C000
03C000
03C000
03C000
ENDCHAR

STARTCHAR oslash
ENCODING 248
SWIDTH 660 0
DWIDTH 21 0
BBX 19 21 3 -1
BITMAP
0000C0
01FFE0
07FFE0
0FFFC0
1FFFC0
3F9FE0
7E3FE0
7C3FE0
F87FE0
F0F9E0
F1F3E0
F3E3E0
F7C3C0
FF87C0
FF0F80
FF3F80
7FFF00
7FFE00
FFF800
FFE000
600000
ENDCHAR

STARTCHAR ugrave
ENCODING 249
SWIDTH 600 0
DWIDTH 20 0
BBX 19 27 3 0
BITMAP
060000
078000
0FE000
07F800
01FC00
007800
001800
000000
3E03E0
3E03E0
3C03C0
3C03C0
7C07C0
7C07C0
7C07C0
780780
780780
F80F80
F80F80
F80F80
F81F00
F81F00
FC3F00
FFFF00
7FFF00
3FFF00
0F9E00
ENDCHAR

STARTCHAR uacute
ENCODING 250
SWIDTH 600 0
DWIDTH 19 0
BBX 19 27 3 0
BITMAP
000180
000780
001FC0
007F80
00FE00
007800
006000
000000
3E03E0
3E03E0
3C03C0
3C03C0
7C07C0
7C07C0
7C07C0
780780
780780
F80F80
F80F80
F80F80
F81F00
F81F00
FC3F00
FFFF00
7FFF00
3FFF00
0F9E00
ENDCHAR

STARTCHAR ucircumflex
ENCODING 251
SWIDTH 600 0
DWIDTH 19 0
BBX 19 25 3 0
BITMAP
007C00
00FE00
01FF00
03CF80
078780
000000
3E03E0
3E03E0
3C03C0
3C03C0
7C07C0
7C07C0
7C07C0
780780
780780
F80F80
F80F80
F80F80
F81F00
F81F00
FC3F00
FFFF00
7FFF00
3FFF00
0F9E00
ENDCHAR

STARTCHAR udieresis
ENCODING 252
SWIDTH 600 0
DWIDTH 19 0
BBX 19 25 3 0
BITMAP
03E7C0
03E7C0
03E7C0
03E7C0
000000
000000
3E03E0
3E03E0
3C03C0
3C03C0
7C07C0
7C07C0
7C07C0
780780
780780
F80F80
F80F80
F80F80
F81F00
F81F00
FC3F00
FFFF00
7FFF00
3FFF00
0F9E00
ENDCHAR

STARTCHAR yacute
ENCODING 253
SWIDTH 580 0
DWIDTH 19 0
BBX 19 33 3 -6
BITMAP
000300
000F00
003F80
00FF00
01FC00
00F000
00C000
000000
7C03E0
7C07E0
7C07C0
7C0F80
7C0F80
3E1F00
3E1F00
3E3E00
3E3C00
1E7C00
1FF800
1FF800
1FF000
1FE000
0FE000
0FC000
0F8000
0F8000
1F0000
1F0000
3E0000
7C0000
7C0000
F80000
F80000
ENDCHAR

STARTCHAR thorn
ENCODING 254
SWIDTH 660 0
DWIDTH 21 0
BBX 22 31 1 -6
BITMAP
03C000
03C000
07C000
07C000
078000
078000
0F9FC0
0F7FF0
0FFFF0
0FFFF8
0FF1FC
1FC0FC
1F807C
1F007C
1E007C
1E007C
3E007C
3E0078
3E00F8
3F01F0
3FC7F0
3FFFE0
7FFFC0
7FFF80
78FE00
780000
780000
F80000
F80000
F00000
F00000
ENDCHAR

STARTCHAR ydieresis
ENCODING 255
SWIDTH 580 0
DWIDTH 19 0
BBX 19 31 3 -6
BITMAP
07CF80
07CF80
07CF80
07CF80
000000
000000
7C03E0
7C07E0
7C07C0
7C0F80
7C0F80
3E1F00
3E1F00
3E3E00
3E3C00
1E7C00
1FF800
1FF800
1FF000
1FE000
0FE000
0FC000
0F8000
0F8000
1F0000
1F0000
3E0000
7C0000
7C0000
F80000
F80000
ENDCHAR
ENDFONT
